<?xml version="1.0" encoding="UTF-8"?>
<svg width="69px" height="61px" viewBox="0 0 69 61" version="1.1" xmlns="http://www.w3.org/2000/svg" xmlns:xlink="http://www.w3.org/1999/xlink">
    <!-- Generator: Sketch 44.1 (41455) - http://www.bohemiancoding.com/sketch -->
    <title>aalto_logo</title>
    <desc>Created with Sketch.</desc>
    <defs></defs>
    <g id="Symbols" stroke="none" stroke-width="1" fill="none" fill-rule="evenodd">
        <g id="Aalto-logo">
            <g id="aalto_logo">
                <path d="M4.33468934,57.7743015 L4.70114859,59.1378994 L6.43058986,59.1378994 L4.27371545,52.3513206 L2.37120687,52.3513206 L0,59.1378994 L1.65861301,59.1378994 L2.08604615,57.7743015 L4.33468934,57.7743015 Z M3.99902499,56.522797 L2.46235976,56.522797 L3.28643114,53.8670453 L3.99902499,56.522797 Z M8.40454259,55.7701697 C8.46551648,55.3729156 8.75006131,55.1795237 9.26926323,55.1795237 C9.74719999,55.1795237 10.0323607,55.352591 10.0323607,55.6377517 C10.0323607,55.8311436 9.9202673,55.9222965 9.59507321,55.973416 L8.8116511,56.1058341 C7.43758291,56.329405 6.85802299,56.8079577 6.85802299,57.7231819 C6.85802299,58.6494924 7.58047122,59.2697015 8.65890842,59.2697015 C9.2489386,59.2697015 9.58460295,59.1477538 10.07301,58.7511155 C10.1241295,58.9340372 10.1241295,58.9648321 10.1851034,59.1378994 L11.6601788,59.1378994 C11.4975818,58.8933879 11.4772572,58.8225597 11.4772572,58.2935034 L11.4772572,56.0343899 C11.4772572,55.3020873 11.3448391,54.9153035 10.9888501,54.5999637 C10.6020663,54.2538291 10.0323607,54.0807618 9.28958786,54.0807618 C7.9056653,54.0807618 7.20354171,54.6301427 7.11238882,55.7701697 L8.40454259,55.7701697 Z M10.07301,57.5507305 C9.83896877,57.9676934 9.49283416,58.1709397 9.0148974,58.1709397 C8.56713963,58.1709397 8.28259481,57.9775478 8.28259481,57.6523537 C8.28259481,57.3573386 8.50616574,57.1842713 9.02536766,57.0623235 L9.54395369,56.9502301 C9.78846515,56.8991106 9.9202673,56.8584613 10.07301,56.7974874 L10.07301,57.5507305 Z M12.708437,59.1378994 L14.1533335,59.1378994 L14.1533335,52.3513206 L12.708437,52.3513206 L12.708437,59.1378994 Z M18.0704441,54.284624 L17.1853988,54.284624 L17.1853988,52.7276342 L15.7405023,52.7276342 L15.7405023,54.284624 L15.0482331,54.284624 L15.0482331,55.3020873 L15.7405023,55.3020873 L15.7405023,57.5402603 C15.7405023,58.3033578 15.8014762,58.5681938 16.0250472,58.8120894 C16.2387637,59.0461306 16.5541035,59.1378994 17.1853988,59.1378994 L18.0704441,59.1378994 L18.0704441,58.0489919 L17.5512421,58.0489919 C17.2155778,58.0489919 17.1853988,57.988018 17.1853988,57.2144503 L17.1853988,55.3020873 L18.0704441,55.3020873 L18.0704441,54.284624 Z M21.3162259,54.0912321 C19.790031,54.0912321 18.7109779,55.1696693 18.7109779,56.6755396 C18.7109779,58.2017346 19.790031,59.2697015 21.3162259,59.2697015 C22.8319506,59.2697015 23.9307125,58.2017346 23.9307125,56.7161889 C23.9307125,55.159199 22.8725999,54.0912321 21.3162259,54.0912321 L21.3162259,54.0912321 Z M21.3162259,55.2411134 C22.0589988,55.2411134 22.4759617,55.7596995 22.4759617,56.7057186 C22.4759617,57.5913798 22.0485285,58.1204361 21.3162259,58.1204361 C20.5833074,58.1204361 20.1663446,57.5913798 20.1663446,56.6755396 C20.1663446,55.7701697 20.5833074,55.2411134 21.3162259,55.2411134 L21.3162259,55.2411134 Z M24.9278512,57.2760401 L28.2487726,57.2760401 L28.2487726,55.973416 L24.9278512,55.973416 L24.9278512,57.2760401 Z M32.4307192,54.2236501 L31.7895695,56.4414984 C31.6774761,56.8787859 31.5961776,57.2144503 31.5352037,57.5402603 L31.4742298,57.3468683 C31.3621364,56.9397598 31.3621364,56.9299055 31.219864,56.4716774 L30.4974158,54.2236501 L28.9508962,54.2236501 L30.5688599,58.3544773 C30.7413113,58.7812945 30.7517816,58.8120894 30.7517816,58.9851567 C30.7517816,59.4125899 30.5177404,59.6059818 30.0090087,59.6059818 L29.5815756,59.6059818 L29.5815756,60.6942734 L30.4259716,60.6942734 C31.5247334,60.6942734 31.7587746,60.4910271 32.2170027,59.1785487 L33.9261193,54.2236501 L32.4307192,54.2236501 Z M34.7397204,59.1378994 L36.1846169,59.1378994 L36.1846169,52.3513206 L34.7397204,52.3513206 L34.7397204,59.1378994 Z M37.5580692,59.1378994 L39.0029656,59.1378994 L39.0029656,54.2236501 L37.5580692,54.2236501 L37.5580692,59.1378994 Z M37.5580692,53.5418512 L39.0029656,53.5418512 L39.0029656,52.3513206 L37.5580692,52.3513206 L37.5580692,53.5418512 Z M42.5844118,54.0912321 C41.0582169,54.0912321 39.9797797,55.1696693 39.9797797,56.6755396 C39.9797797,58.2017346 41.0582169,59.2697015 42.5844118,59.2697015 C44.1007524,59.2697015 45.1995143,58.2017346 45.1995143,56.7161889 C45.1995143,55.159199 44.1414017,54.0912321 42.5844118,54.0912321 L42.5844118,54.0912321 Z M42.5844118,55.2411134 C43.3271847,55.2411134 43.7447635,55.7596995 43.7447635,56.7057186 C43.7447635,57.5913798 43.3173303,58.1204361 42.5844118,58.1204361 C41.8521092,58.1204361 41.4351464,57.5913798 41.4351464,56.6755396 C41.4351464,55.7701697 41.8521092,55.2411134 42.5844118,55.2411134 L42.5844118,55.2411134 Z M46.1763283,54.2236501 L46.1763283,60.6942734 L47.6212248,60.6942734 L47.6212248,58.7406453 C48.0283333,59.1175748 48.4046469,59.2697015 48.9435575,59.2697015 C50.2357113,59.2697015 51.1010478,58.2319136 51.1010478,56.6650694 C51.1010478,55.1388744 50.2258569,54.0912321 48.9337032,54.0912321 C48.3233484,54.0912321 47.9667435,54.2741538 47.5497806,54.80321 L47.5904299,54.2236501 L46.1763283,54.2236501 Z M48.6183634,55.2614381 C49.2798378,55.2614381 49.676476,55.810819 49.676476,56.6958643 C49.676476,57.5507305 49.2595132,58.1001114 48.6282178,58.1001114 C47.9772137,58.1001114 47.5701052,57.5507305 47.5701052,56.6755396 C47.5701052,55.810819 47.9772137,55.2614381 48.6183634,55.2614381 L48.6183634,55.2614381 Z M52.1991938,59.1378994 L53.6440902,59.1378994 L53.6440902,54.2236501 L52.1991938,54.2236501 L52.1991938,59.1378994 Z M52.1991938,53.5418512 L53.6440902,53.5418512 L53.6440902,52.3513206 L52.1991938,52.3513206 L52.1991938,53.5418512 Z M59.097866,55.6987256 C58.9759182,54.6609376 58.2023505,54.0912321 56.9409916,54.0912321 C55.6383676,54.0912321 54.8450911,54.6911166 54.8450911,55.6784009 C54.8450911,56.4618231 55.262054,56.8584613 56.3404912,57.0925025 L57.2360067,57.2963647 C57.6227906,57.3875176 57.7853876,57.5199356 57.7853876,57.7435066 C57.7853876,58.0286673 57.4799023,58.2220592 57.0327604,58.2220592 C56.4525846,58.2220592 56.1470992,57.9978724 56.0658007,57.5402603 L54.7126731,57.5402603 C54.7939716,58.6291677 55.6383676,59.2697015 57.0019655,59.2697015 C58.3655634,59.2697015 59.2099594,58.6186975 59.2099594,57.5809095 C59.2099594,57.1842713 59.0775414,56.817812 58.8435002,56.5942411 C58.6297836,56.3700543 58.3249142,56.2376362 57.7244137,56.1156885 L56.8190438,55.9222965 C56.3608158,55.8206734 56.2185434,55.7289046 56.2185434,55.5459829 C56.2185434,55.3020873 56.4932339,55.1388744 56.9101967,55.1388744 C57.3887494,55.1388744 57.6837645,55.3322663 57.7447384,55.6987256 L59.097866,55.6987256 Z M62.8825586,54.284624 L61.9975133,54.284624 L61.9975133,52.7276342 L60.5526168,52.7276342 L60.5526168,54.284624 L59.8609635,54.284624 L59.8609635,55.3020873 L60.5526168,55.3020873 L60.5526168,57.5402603 C60.5526168,58.3033578 60.6142066,58.5681938 60.8377776,58.8120894 C61.0514941,59.0461306 61.3668339,59.1378994 61.9975133,59.1378994 L62.8825586,59.1378994 L62.8825586,58.0489919 L62.3639725,58.0489919 C62.0283082,58.0489919 61.9975133,57.988018 61.9975133,57.2144503 L61.9975133,55.3020873 L62.8825586,55.3020873 L62.8825586,54.284624 Z M66.2201092,54.0912321 C64.6939142,54.0912321 63.615477,55.1696693 63.615477,56.6755396 C63.615477,58.2017346 64.6939142,59.2697015 66.2201092,59.2697015 C67.7358339,59.2697015 68.8352117,58.2017346 68.8352117,56.7161889 C68.8352117,55.159199 67.7770991,54.0912321 66.2201092,54.0912321 L66.2201092,54.0912321 Z M66.2201092,55.2411134 C66.9628821,55.2411134 67.3798449,55.7596995 67.3798449,56.7057186 C67.3798449,57.5913798 66.9524118,58.1204361 66.2201092,58.1204361 C65.4871907,58.1204361 65.0702279,57.5913798 65.0702279,56.6755396 C65.0702279,55.7701697 65.4871907,55.2411134 66.2201092,55.2411134 L66.2201092,55.2411134 Z" id="Fill-1" fill="#1A1918"></path>
                <path d="M43.8118963,42.7710289 L28.6657354,0 L15.7620588,0 L0.615897889,42.7710289 L11.3651637,42.7710289 L13.9845775,35.2028756 L30.4432167,35.2028756 L33.0632464,42.7710289 L43.8118963,42.7710289 Z M27.4887546,26.6665309 L16.9390396,26.6665309 L22.2142051,11.4279853 L27.4887546,26.6665309 Z" id="Fill-3" fill="#1A1918"></path>
                <polygon id="Fill-4" fill="#0075B1" points="48.0400353 42.9545665 57.7361158 42.9545665 57.7361158 33.258486 48.0400353 33.258486"></polygon>
                <polygon id="Fill-5" fill="#0075B1" points="57.7201025 14.8185032 57.7201025 0 47.4241374 0 47.4241374 14.8185032 49.5249651 29.6370064 55.2146298 29.6370064"></polygon>
            </g>
        </g>
    </g>
</svg>