<svg viewbox="0 0 1129 118" width="1129" height="118" 
  xmlns="http://www.w3.org/2000/svg">
  <path d="M75.69 89.414h-4.8L52.543 24.949c-1.524-5.296-2.667-9.64-3.429-13.03-.61 3.314-1.476 7.124-2.6 11.43-1.124 4.305-7.267 26.326-18.43 66.065h-4.916L.195 5.86H6.31l14.63 53.835a1374.13 1374.13 0 0 0 1.6 6.03c.496 1.847.944 3.58 1.344 5.2.4 1.619.762 3.181 1.086 4.686.324 1.505.619 3.02.886 4.543.914-5.181 2.857-13.049 5.829-23.602L45.972 5.86h6.458l16.745 58.178c1.943 6.706 3.334 12.116 4.172 16.23a129.67 129.67 0 0 1 1.914-8.743c.781-3.086 6.658-24.974 17.631-65.665h5.886L75.69 89.414zm74.462 0l-1.429-9.83h-.457c-3.124 4-6.334 6.83-9.63 8.487-3.295 1.657-7.19 2.486-11.687 2.486-6.096 0-10.839-1.562-14.23-4.687-3.39-3.124-5.086-7.448-5.086-12.973 0-6.058 2.524-10.763 7.572-14.116 5.048-3.352 12.354-5.124 21.917-5.315l11.83-.342v-4.115c0-5.906-1.2-10.363-3.6-13.373-2.4-3.01-6.268-4.515-11.602-4.515-5.753 0-11.715 1.6-17.888 4.8l-2.114-4.914c6.82-3.2 13.563-4.8 20.23-4.8 6.82 0 11.917 1.77 15.288 5.314 3.372 3.543 5.058 9.068 5.058 16.573v41.32h-4.172zm-22.86-4c6.63 0 11.859-1.896 15.688-5.687 3.829-3.791 5.743-9.058 5.743-15.802V57.81l-10.858.457c-8.725.42-14.945 1.781-18.66 4.086-3.714 2.305-5.571 5.896-5.571 10.773 0 3.886 1.19 6.906 3.571 9.058 2.382 2.153 5.744 3.23 10.087 3.23zm66.233.113c3.581 0 6.706-.304 9.373-.914v4.572c-2.744.914-5.906 1.372-9.487 1.372-5.487 0-9.535-1.467-12.145-4.4-2.61-2.935-3.914-7.545-3.914-13.831v-40.12h-9.201v-3.314l9.2-2.572 2.858-14.058h2.915v15.03h18.23v4.915h-18.23v39.319c0 4.762.838 8.286 2.514 10.572 1.677 2.286 4.306 3.43 7.887 3.43zm50.574 5.03c-9.03 0-16.069-2.782-21.117-8.344-5.048-5.563-7.573-13.354-7.573-23.374 0-9.906 2.439-17.84 7.316-23.803 4.876-5.963 11.449-8.944 19.716-8.944 7.315 0 13.088 2.552 17.317 7.658 4.229 5.105 6.343 12.04 6.343 20.802v4.572h-44.748c.076 8.535 2.067 15.05 5.972 19.545 3.905 4.496 9.497 6.744 16.774 6.744 3.543 0 6.658-.248 9.344-.743 2.686-.495 6.086-1.562 10.2-3.2v5.143c-3.504 1.524-6.743 2.562-9.715 3.115-2.971.552-6.248.829-9.83.829zM242.44 31.12c-5.981 0-10.782 1.972-14.401 5.915-3.62 3.943-5.734 9.63-6.344 17.06H260.1c0-7.202-1.563-12.83-4.687-16.889-3.124-4.057-7.448-6.086-12.973-6.086zm67.947-5.03c2.63 0 5.449.268 8.459.8l-1.086 5.43a33.1 33.1 0 0 0-8.058-.971c-5.296 0-9.64 2.247-13.03 6.743-3.391 4.496-5.087 10.173-5.087 17.03v34.29h-5.658V27.293h4.8l.572 11.201h.4c2.553-4.572 5.277-7.782 8.173-9.63 2.895-1.847 6.4-2.771 10.515-2.771zm104.405 41.777c0 6.972-2.562 12.497-7.686 16.574-5.125 4.076-11.935 6.115-20.431 6.115-10.211 0-18.04-1.124-23.489-3.372v-5.83c6.02 2.553 13.697 3.83 23.031 3.83 6.858 0 12.297-1.572 16.317-4.715 4.02-3.144 6.029-7.268 6.029-12.373 0-3.162-.667-5.782-2-7.858-1.334-2.077-3.506-3.972-6.515-5.687-3.01-1.714-7.43-3.562-13.26-5.543-8.534-2.934-14.43-6.106-17.687-9.516-3.258-3.41-4.886-7.953-4.886-13.63 0-6.248 2.448-11.344 7.343-15.287 4.896-3.944 11.192-5.915 18.888-5.915 7.849 0 15.221 1.486 22.117 4.457l-2.114 5.03c-6.934-2.896-13.564-4.344-19.888-4.344-6.172 0-11.087 1.429-14.745 4.286-3.657 2.858-5.486 6.744-5.486 11.659 0 3.086.562 5.62 1.686 7.6 1.124 1.982 2.962 3.763 5.515 5.344 2.552 1.581 6.934 3.477 13.144 5.687 6.515 2.248 11.41 4.429 14.687 6.543 3.277 2.115 5.668 4.515 7.173 7.201s2.257 5.934 2.257 9.744zm43.716 22.689c-8.877 0-15.83-2.8-20.86-8.401-5.029-5.601-7.544-13.411-7.544-23.432 0-10.287 2.61-18.297 7.83-24.031 5.22-5.734 12.363-8.601 21.431-8.601 5.372 0 10.516.933 15.43 2.8l-1.543 5.03c-5.372-1.791-10.039-2.687-14.001-2.687-7.62 0-13.392 2.353-17.317 7.058-3.924 4.706-5.886 11.478-5.886 20.317 0 8.382 1.962 14.945 5.886 19.688 3.925 4.743 9.411 7.115 16.46 7.115 5.638 0 10.877-1.01 15.716-3.029v5.258c-3.963 1.943-9.163 2.915-15.602 2.915zm71.205-1.143l-1.43-9.83h-.456c-3.125 4-6.334 6.83-9.63 8.487-3.296 1.657-7.191 2.486-11.687 2.486-6.096 0-10.84-1.562-14.23-4.687-3.391-3.124-5.087-7.448-5.087-12.973 0-6.058 2.524-10.763 7.572-14.116 5.049-3.352 12.354-5.124 21.917-5.315l11.83-.342v-4.115c0-5.906-1.2-10.363-3.6-13.373-2.4-3.01-6.267-4.515-11.601-4.515-5.754 0-11.716 1.6-17.888 4.8l-2.115-4.914c6.82-3.2 13.564-4.8 20.231-4.8 6.82 0 11.916 1.77 15.288 5.314 3.372 3.543 5.057 9.068 5.057 16.573v41.32h-4.171zm-22.86-4c6.629 0 11.858-1.896 15.687-5.687 3.83-3.791 5.744-9.058 5.744-15.802V57.81l-10.859.457c-8.725.42-14.944 1.781-18.659 4.086-3.715 2.305-5.572 5.896-5.572 10.773 0 3.886 1.19 6.906 3.572 9.058 2.381 2.153 5.743 3.23 10.087 3.23zm74.29-59.322c2.63 0 5.449.267 8.459.8l-1.086 5.43a33.1 33.1 0 0 0-8.058-.972c-5.296 0-9.64 2.247-13.03 6.743-3.391 4.496-5.087 10.173-5.087 17.03v34.29h-5.658V27.293h4.8l.572 11.201h.4c2.553-4.572 5.277-7.782 8.173-9.63 2.895-1.847 6.4-2.771 10.515-2.771zm46.23 64.465c-8.877 0-15.83-2.8-20.859-8.401-5.03-5.601-7.544-13.411-7.544-23.432 0-10.287 2.61-18.297 7.83-24.031 5.22-5.734 12.363-8.601 21.43-8.601 5.373 0 10.516.933 15.431 2.8l-1.543 5.03c-5.372-1.791-10.039-2.687-14.001-2.687-7.62 0-13.392 2.353-17.317 7.058-3.924 4.706-5.886 11.478-5.886 20.317 0 8.382 1.962 14.945 5.886 19.688 3.925 4.743 9.41 7.115 16.46 7.115 5.638 0 10.877-1.01 15.715-3.029v5.258c-3.962 1.943-9.162 2.915-15.601 2.915zm39.144-1.143h-5.657V27.292h5.657v62.122zm-6.458-79.381c0-3.658 1.2-5.487 3.6-5.487 1.182 0 2.106.477 2.773 1.43.666.952 1 2.304 1 4.057 0 1.714-.334 3.067-1 4.057-.667.991-1.591 1.486-2.772 1.486-2.4 0-3.6-1.848-3.6-5.543zm46.345 75.494c3.581 0 6.706-.304 9.373-.914v4.572c-2.744.914-5.906 1.372-9.487 1.372-5.487 0-9.535-1.467-12.145-4.4-2.61-2.935-3.914-7.545-3.914-13.831v-40.12h-9.201v-3.314l9.2-2.572 2.858-14.058h2.915v15.03h18.23v4.915h-18.23v39.319c0 4.762.838 8.286 2.514 10.572 1.677 2.286 4.306 3.43 7.887 3.43zm15.084-58.235h5.829l13.144 34.861c4 10.706 6.534 17.926 7.601 21.66h.343c1.6-4.915 4.21-12.25 7.83-22.003l13.144-34.518h5.83l-27.833 72.18c-2.247 5.867-4.133 9.83-5.657 11.887-1.524 2.057-3.305 3.6-5.344 4.63-2.038 1.028-4.505 1.542-7.4 1.542-2.172 0-4.592-.4-7.259-1.2v-4.915c2.21.61 4.591.915 7.144.915 1.943 0 3.658-.458 5.143-1.372 1.486-.914 2.83-2.334 4.03-4.258 1.2-1.924 2.59-4.972 4.171-9.144a841.73 841.73 0 0 0 3.058-8.143l-23.774-62.122zM871.27 89.414l-4.114-15.66h-27.147l-4.229 15.66h-24.803l27.26-83.896h30.119l27.603 83.896H871.27zm-8.8-34.176l-3.601-13.716c-.838-3.048-1.858-6.991-3.058-11.83-1.2-4.838-1.99-8.306-2.371-10.401-.343 1.943-1.02 5.143-2.03 9.601-1.009 4.458-3.247 13.24-6.714 26.346h17.773zm75.604 17.66c3.01 0 6.61-.744 10.802-2.23v16.288c-3.01 1.296-5.877 2.22-8.601 2.772-2.724.552-5.915.829-9.573.829-7.506 0-12.916-1.839-16.23-5.515-3.315-3.677-4.972-9.325-4.972-16.945v-26.69h-7.83v-9.086l9.944-7.03 5.772-13.6h14.63v12.972h15.888v16.745h-15.887V66.61c0 4.19 2.019 6.286 6.057 6.286zm47.145 16.516h-22.345V.489h22.345v88.925zm60.403 0l-4.286-8.573h-.457c-3.01 3.734-6.077 6.287-9.201 7.658-3.124 1.372-7.163 2.058-12.116 2.058-6.096 0-10.896-1.83-14.401-5.487-3.506-3.657-5.258-8.8-5.258-15.43 0-6.896 2.4-12.03 7.2-15.402 4.801-3.372 11.754-5.267 20.86-5.686l10.802-.343v-.915c0-5.334-2.63-8-7.887-8-4.725 0-10.725 1.6-18.002 4.8l-6.458-14.745c7.544-3.886 17.068-5.829 28.575-5.829 8.305 0 14.735 2.057 19.288 6.172 4.553 4.115 6.829 9.868 6.829 17.26v42.462h-15.488zm-16.573-14.63c2.705 0 5.02-.858 6.944-2.572 1.924-1.715 2.886-3.944 2.886-6.687v-5.03l-5.144.23c-7.353.266-11.03 2.971-11.03 8.115 0 3.962 2.115 5.943 6.344 5.943zM1129 69.525c0 6.934-2.362 12.172-7.087 15.716-4.724 3.543-11.506 5.315-20.345 5.315-4.8 0-8.972-.258-12.516-.772-3.543-.514-7.162-1.457-10.858-2.829V69.068c3.467 1.524 7.267 2.782 11.401 3.772 4.134.99 7.82 1.486 11.059 1.486 4.838 0 7.258-1.105 7.258-3.315 0-1.143-.676-2.162-2.029-3.057-1.353-.895-5.286-2.638-11.801-5.23-5.944-2.438-10.097-5.21-12.46-8.315-2.361-3.105-3.542-7.038-3.542-11.8 0-6.02 2.324-10.707 6.972-14.06 4.648-3.353 11.22-5.029 19.717-5.029 4.267 0 8.277.467 12.03 1.4 3.752.934 7.648 2.296 11.687 4.086l-6.058 14.402a68.067 68.067 0 0 0-9.43-3.4c-3.315-.934-6.02-1.4-8.115-1.4-3.658 0-5.487.895-5.487 2.686 0 1.105.639 2.047 1.915 2.829 1.276.78 4.962 2.371 11.058 4.772 4.534 1.866 7.916 3.695 10.145 5.486 2.228 1.79 3.867 3.896 4.914 6.315 1.048 2.42 1.572 5.362 1.572 8.83z" fill-rule="evenodd"/>
</svg>
